<?xml version="1.0" standalone="no"?><!DOCTYPE svg PUBLIC "-//W3C//DTD SVG 1.1//EN" "http://www.w3.org/Graphics/SVG/1.1/DTD/svg11.dtd"><svg t="1715678801016" class="icon" viewBox="0 0 1024 1024" version="1.1" xmlns="http://www.w3.org/2000/svg" p-id="2552" xmlns:xlink="http://www.w3.org/1999/xlink" width="200" height="200"><path d="M573.905455 911.825455h-8.145455c-73.541818 0-142.778182-28.625455-194.792727-80.64-52.014545-52.014545-80.64-121.250909-80.64-194.792728V339.898182c0-55.389091 45.032727-100.421818 100.421818-100.421818s100.421818 45.032727 100.421818 100.421818v290.327273h-81.454545V339.898182c0-10.472727-8.494545-18.967273-18.967273-18.967273s-18.967273 8.494545-18.967273 18.967273v296.378182c0 106.938182 87.04 193.978182 193.978182 193.978181h8.145455c106.938182 0 193.978182-87.04 193.978181-193.978181v-49.105455c0-10.472727-8.494545-18.967273-18.967272-18.967273s-18.967273 8.494545-18.967273 18.967273v49.105455h-81.454546v-49.105455c0-55.389091 45.032727-100.421818 100.421819-100.421818 55.389091 0 100.421818 45.032727 100.421818 100.421818v49.105455c0 73.541818-28.625455 142.778182-80.64 194.792727-52.014545 52.014545-121.134545 80.756364-194.792727 80.756364z" p-id="2553"></path><path d="M491.287273 636.276364h-81.454546v-115.083637c0-55.389091 45.032727-100.421818 100.421818-100.421818s100.421818 45.032727 100.421819 100.421818v112.058182h-81.454546v-112.058182c0-10.472727-8.494545-18.967273-18.967273-18.967272s-18.967273 8.494545-18.967272 18.967272v115.083637z" p-id="2554"></path><path d="M610.676364 636.276364h-81.454546v-82.036364c0-55.389091 45.032727-100.421818 100.421818-100.421818 55.389091 0 100.421818 45.032727 100.421819 100.421818v79.127273h-81.454546v-79.127273c0-10.472727-8.494545-18.967273-18.967273-18.967273s-18.967273 8.494545-18.967272 18.967273v82.036364z" p-id="2555"></path><path d="M174.545455 326.865455c0-118.341818 96.232727-214.574545 214.574545-214.574546s214.574545 96.232727 214.574545 214.574546h-81.454545c0-73.425455-59.694545-133.12-133.12-133.12-73.425455 0-133.12 59.694545-133.12 133.12h-81.454545z" fill="#0017EF" p-id="2556"></path></svg>