<?xml version="1.0" standalone="no"?><!DOCTYPE svg PUBLIC "-//W3C//DTD SVG 1.1//EN" "http://www.w3.org/Graphics/SVG/1.1/DTD/svg11.dtd"><svg t="1715678823447" class="icon" viewBox="0 0 1024 1024" version="1.1" xmlns="http://www.w3.org/2000/svg" p-id="2709" xmlns:xlink="http://www.w3.org/1999/xlink" width="200" height="200"><path d="M118.690909 291.490909h786.618182v81.454546H118.690909z" p-id="2710"></path><path d="M666.763636 363.287273c-22.458182 0-40.727273-18.269091-40.727272-40.727273v-113.92H397.963636v113.92c0 22.458182-18.269091 40.727273-40.727272 40.727273s-40.727273-18.269091-40.727273-40.727273V169.076364c0-23.156364 18.734545-41.890909 41.890909-41.890909h307.2c23.156364 0 41.890909 18.734545 41.890909 41.890909v153.483636c0 22.574545-18.269091 40.727273-40.727273 40.727273z" p-id="2711"></path><path d="M796.043636 896.814545H227.956364c-23.156364 0-41.890909-18.734545-41.890909-41.890909V334.661818c0-22.458182 18.269091-40.727273 40.727272-40.727273s40.727273 18.269091 40.727273 40.727273v480.698182H756.363636V334.661818c0-22.458182 18.269091-40.727273 40.727273-40.727273s40.727273 18.269091 40.727273 40.727273v520.261818c0.116364 23.04-18.734545 41.890909-41.774546 41.890909z" p-id="2712"></path><path d="M343.738182 430.08h81.454545v278.341818h-81.454545zM471.272727 430.08h81.454546v278.341818h-81.454546zM598.807273 430.08h81.454545v278.341818h-81.454545z" fill="#0017EF" p-id="2713"></path></svg>