<?xml version="1.0" standalone="no"?><!DOCTYPE svg PUBLIC "-//W3C//DTD SVG 1.1//EN" "http://www.w3.org/Graphics/SVG/1.1/DTD/svg11.dtd"><svg t="1715778311913" class="icon" viewBox="0 0 1024 1024" version="1.1" xmlns="http://www.w3.org/2000/svg" p-id="2393" xmlns:xlink="http://www.w3.org/1999/xlink" width="200" height="200"><path d="M449.512727 495.36h277.992728M449.512727 454.632727h277.992728v81.454546H449.512727z" fill="#8a8a8a" p-id="2394"></path><path d="M290.56 495.36H370.036364" fill="#8a8a8a" p-id="2395"></path><path d="M290.56 454.632727H370.036364v81.454546h-79.476364z" p-id="2396" fill="#8a8a8a"></path><path d="M449.512727 654.312727h277.992728M449.512727 613.585455h277.992728v81.454545H449.512727z" fill="#8a8a8a" p-id="2397"></path><path d="M290.56 654.312727H370.036364" fill="#8a8a8a" p-id="2398"></path><path d="M290.56 613.585455H370.036364v81.454545h-79.476364z" p-id="2399" fill="#8a8a8a"></path><path d="M854.574545 869.236364H169.425455c-22.458182 0-40.727273-18.269091-40.727273-40.727273V195.490909c0-22.458182 18.269091-40.727273 40.727273-40.727273h306.967272c13.963636 0 26.88 7.098182 34.327273 18.850909l50.967273 80.058182h292.770909c22.458182 0 40.727273 18.269091 40.727273 40.727273v534.109091c0.116364 22.574545-18.152727 40.727273-40.61091 40.727273z m-644.421818-81.454546h603.694546V335.127273H539.461818c-13.963636 0-26.88-7.098182-34.327273-18.850909L454.167273 236.218182H210.152727v551.563636z" p-id="2400" fill="#8a8a8a"></path></svg>