<?xml version="1.0" standalone="no"?><!DOCTYPE svg PUBLIC "-//W3C//DTD SVG 1.1//EN" "http://www.w3.org/Graphics/SVG/1.1/DTD/svg11.dtd"><svg t="1715678764911" class="icon" viewBox="0 0 1024 1024" version="1.1" xmlns="http://www.w3.org/2000/svg" p-id="2393" xmlns:xlink="http://www.w3.org/1999/xlink" width="200" height="200"><path d="M742.865455 920.32H350.021818v-81.454545h392.843637c28.858182 0 54.109091-16.989091 54.10909-36.305455s-25.250909-36.305455-54.10909-36.305455H263.214545c-34.676364 0-67.607273-11.287273-92.741818-31.650909-27.229091-22.109091-42.821818-53.527273-42.821818-86.109091s15.592727-64 42.821818-86.10909c25.134545-20.48 58.065455-31.650909 92.741818-31.65091h106.356364v81.454546h-106.356364c-28.858182 0-54.109091 16.989091-54.10909 36.305454s25.250909 36.305455 54.10909 36.305455h479.65091c34.676364 0 67.607273 11.287273 92.741818 31.650909 27.229091 22.109091 42.821818 53.527273 42.821818 86.109091s-15.592727 64-42.821818 86.109091c-25.134545 20.363636-58.181818 31.650909-92.741818 31.650909z" p-id="2394"></path><path d="M591.36 568.203636h-118.690909c-22.458182 0-40.727273-18.269091-40.727273-40.727272v-118.690909c0-10.821818 4.305455-21.178182 11.985455-28.858182L708.189091 115.665455c15.941818-15.941818 41.658182-15.941818 57.6 0l118.690909 118.690909c7.68 7.68 11.985455 18.036364 11.985455 28.741818s-4.305455 21.178182-11.985455 28.741818L620.101818 556.334545c-7.563636 7.563636-18.036364 11.869091-28.741818 11.869091z m-77.963636-81.454545h61.090909l223.650909-223.650909-61.090909-61.090909-223.650909 223.650909v61.090909z" fill="#0017EF" p-id="2395"></path></svg>